<svg
   width="455.29083"
   height="985.59869"
   viewBox="0 0 120.46239 260.77307"
   version="1.1"
   id="svg1"
   xml:space="preserve"
   inkscape:version="1.4.4 (dcaf3e7, 2026-05-05)"
   sodipodi:docname="body-back.svg"
   xmlns:inkscape="http://www.inkscape.org/namespaces/inkscape"
   xmlns:sodipodi="http://sodipodi.sourceforge.net/DTD/sodipodi-0.dtd"
   xmlns="http://www.w3.org/2000/svg"
   xmlns:svg="http://www.w3.org/2000/svg"><sodipodi:namedview
     id="namedview1"
     pagecolor="#ffffff"
     bordercolor="#000000"
     borderopacity="0.25"
     inkscape:showpageshadow="2"
     inkscape:pageopacity="0.0"
     inkscape:pagecheckerboard="0"
     inkscape:deskcolor="#d1d1d1"
     inkscape:document-units="mm"
     inkscape:zoom="0.46299721"
     inkscape:cx="190.06594"
     inkscape:cy="322.89611"
     inkscape:window-width="852"
     inkscape:window-height="963"
     inkscape:window-x="812"
     inkscape:window-y="0"
     inkscape:window-maximized="0"
     inkscape:current-layer="svg1"
     inkscape:lockguides="true" /><defs
     id="defs1" /><path
     style="fill:none;stroke:#8FAAE6;stroke-width:0.8;stroke-linecap:round;stroke-linejoin:round;opacity:0.9"
     d="M 49.123657,17.03044 C 48.921521,11.941488 50.033234,6.8525151 50.033234,6.8525151 l 2.526604,-3.66405 3.335129,-1.83203 3.335117,-1.22134586 4.244702,0.4071153 3.638309,2.03558756 2.021287,2.035586 1.414896,1.628463 0.909584,3.7658369 0.303193,4.478291 -0.303193,1.628462 -0.101064,1.323135 0.808512,-0.91602 1.010648,0.508894 0.09174,0.839328 v 1.07953 l -0.178657,1.367416 -0.321588,1.151494 -0.428778,1.187486 -0.535971,1.331426 -0.535974,0.827641 -0.535974,0.215911 -0.786098,-0.251899 -0.464514,2.195058 -0.39305,1.04355 -0.893288,1.655282 -0.03571,3.382528 0.107195,1.475361 0.535974,3.130642 1.286349,1.655284 3.465966,2.231033 4.537905,2.015125 3.501703,1.547328 3.537434,0.899617 3.358768,1.799217 1.715114,1.511348 1.893767,2.950718 1.3578,3.670405 0.92903,3.274587 0.42878,1.691272 0.0908,8.132524 0.25267,1.272247 2.22341,12.824188 0.60639,3.511383 0.25266,1.475797 0.40425,0.814231 1.31385,4.223864 2.071809,3.86761 1.46544,3.511368 0.96011,4.27472 0.90957,5.44519 1.01064,5.34341 1.26331,6.00497 1.76862,5.80142 2.6782,1.5267 2.22341,1.93381 0.90959,0.71245 1.51596,3.05338 3.53726,4.73273 0.0505,0.71246 -0.9096,0.4071 -1.66755,-0.0509 -1.31383,-0.91601 -1.31383,-1.32313 -0.90959,-1.4758 0.50533,3.9185 1.97075,6.76832 0.96011,2.9516 0.10106,1.27224 -0.3032,0.76334 -0.85903,0.50891 -1.21278,-0.71247 -2.88033,-8.95657 1.11171,6.00498 1.06117,3.9185 0.1516,1.0178 -0.55585,0.91601 -0.96011,0.35622 -0.30319,-0.40711 -0.65693,-0.45802 -0.10105,-0.76333 -2.77928,-9.8726 1.76863,8.8548 v 1.06869 l -0.30319,0.40711 -0.90958,0.35624 -1.01065,-0.86512 -0.6569,-1.73026 -2.17289,-7.73523 0.10106,2.79893 0.45479,2.39181 0.45478,2.03559 -0.50532,0.66156 -1.1117,-0.0509 -0.55586,-0.45801 -0.25266,-1.01779 -1.51596,-6.15765 -0.6064,-2.74804 -1.61701,-4.8854 -0.25266,-3.61316 v -1.47581 l 0.1516,-1.42492 -0.70745,-2.64624 -1.515979,-4.02029 -1.76863,-3.81673 -4.80055,-10.07614 -1.667535,-3.56227 -1.364374,-5.64874 -0.757979,-4.020258 -0.353721,-1.9847 -3.08247,-9.97438 -2.37501,-9.312811 -1.465426,6.666537 -0.960119,5.85232 -0.202126,4.325624 v 3.15516 l 0.555862,2.08647 0.909573,4.783598 0.151596,1.78114 v 1.22135 l 1.414904,3.61317 1.061171,4.78362 1.061171,5.59787 0.505328,4.98718 0.454788,10.53416 -0.505319,8.19322 -0.555861,5.85231 -1.162238,6.51387 -0.606379,3.35872 -1.869693,11.65372 -0.101064,2.34094 0.151596,4.02029 -0.30319,4.37649 0.404253,3.51139 1.364374,9.05835 0.303193,5.75054 -0.404265,4.93629 -1.263302,8.04056 -1.718095,7.837 -1.263297,7.58256 -0.555861,6.31032 -0.404258,3.20603 0.20213,3.15517 0.859052,3.20604 v 1.78113 l -0.404264,1.78115 2.577148,4.68184 1.970747,1.27226 0.656924,1.47579 -0.151598,1.62847 -1.313838,1.27223 -1.718096,0.61068 -1.465426,-0.0509 -1.81916,1.73025 -2.223414,0.61067 -3.789906,0.20357 -2.122352,-1.32314 -0.909582,-2.34092 v -2.64625 l 0.808519,-4.47831 -0.05053,-2.84981 -0.353724,-1.47581 -0.252659,-2.64625 0.707448,-2.79894 0.505321,-4.78363 -0.353726,-5.95408 -0.757979,-8.19323 -0.960118,-7.12455 -1.313826,-8.70212 0.05052,-6.92098 0.202126,-6.36121 v -4.9872 l -0.252636,-2.69714 -1.010651,-3.66405 -0.808511,-7.83701 -0.505318,-6.56477 -1.212777,-9.41457 -0.303191,-1.47581 -1.81916,-20.91563 -0.808509,-0.66157 -0.960108,1.22134 -1.263307,14.65622 -2.071821,13.28218 -0.757988,5.59787 -0.454789,5.08899 -0.555851,4.83451 -0.505318,3.76583 -1.111705,3.56227 -0.353731,3.10427 0.353731,5.3943 0.05053,5.34341 0.05052,4.98719 -0.75799,5.44518 -1.414904,7.379 -0.707445,5.34341 -0.606382,7.63344 v 6.20854 l 0.353719,3.9185 0.606385,3.10427 -0.555851,4.17295 0.303192,5.19074 0.555861,3.91851 -0.303202,1.42492 -0.656914,0.96691 -1.061171,0.76331 -2.678204,0.55983 -2.425541,-0.20357 -1.718097,-0.45802 -1.313838,-0.91602 -0.859042,-1.11958 -2.273949,-0.20354 -1.414894,-0.86511 -0.808523,-1.17049 0.202129,-1.8829 1.010649,-1.11958 1.414894,-0.91602 1.313839,-2.79892 1.2633,-2.03559 v -0.91601 l -0.303192,-1.52669 v -1.06868 l 0.505328,-1.9847 0.404257,-2.18826 v -1.47579 l -0.252672,-4.4274 -0.808506,-6.25942 -1.162233,-6.25943 -1.718097,-8.49857 -0.606386,-4.37651 c 0,0 -0.404257,-5.49608 -0.454786,-5.80141 -0.05052,-0.30535 -0.151596,-5.4452 -0.151596,-5.4452 l 0.353722,-4.12207 0.909576,-5.54697 0.757978,-3.8676 0.454799,-1.98469 -0.101062,-2.90071 -0.05053,-3.76584 0.05053,-3.51139 -0.606394,-4.12207 -1.01064,-7.02276 -1.617033,-8.90567 -1.162233,-11.50106 v -4.88542 l 0.151597,-5.29252 0.505319,-6.8701 1.162244,-6.15764 0.606383,-2.44269 0.808512,-4.07119 1.061179,-2.9007 0.960108,-2.23915 0.05053,-2.69714 0.707445,-3.104258 0.960118,-4.12206 v -4.223851 l -0.656926,-4.376506 -0.707446,-4.376513 -1.212766,-5.699638 -1.263309,5.852306 -1.515958,5.190745 -2.122351,6.259437 -0.353725,2.29003 -0.606393,4.478288 -0.303191,1.73023 -1.364364,4.63097 -1.313839,3.91849 -1.970754,3.61317 -1.414895,2.74804 -1.364373,2.23915 -1.920221,4.3765 -1.364363,3.51138 -0.909585,2.84982 -0.151588,1.17047 0.20212,2.74804 -0.20212,1.67935 -0.859053,4.27473 -1.111701,4.27473 -0.808519,2.34092 -0.75798,4.3765 -0.606383,1.27224 -0.859054,0.30535 -1.06117,-0.9669 0.555851,-2.44271 0.202128,-1.67937 0.303191,-3.05336 -2.476075,8.70212 -0.555849,1.37402 -1.01064,0.66158 -0.8085217,-0.55979 -0.101062,-0.20356 0.404265,-2.9516 1.6170227,-7.32811 -2.9813947,10.12704 -0.50532,1.11957 -0.960117,0.40711 -0.707448,-0.458 -0.353721,-0.71245 0.151595,-2.13737 1.212776,-4.52918 0.960107,-4.27474 -2.122352,5.75054 -0.859042,2.90072 -0.656924,0.81422 h -1.162236 l -0.454787,-0.91601 0.252659,-1.93381 2.122353,-7.73523 0.656915,-2.23913 0.353722,-3.00249 -1.718085,2.13737 -1.212777,1.32312 -1.718096,0.30534 -1.01063796,-0.25445 -0.3537236,-0.71245 0.90957496,-1.06868 1.8191596,-2.64626 1.667553,-2.59537 1.566499,-2.39182 3.031926,-2.18825 1.7686287,-1.32314 1.970755,-5.19074 1.465427,-7.12454 1.162245,-8.70212 0.960107,-4.63097 1.313838,-3.664038 1.718096,-3.30782 1.465428,-3.20605 1.061169,-2.849831 0.555861,-3.358708 1.920214,-11.602845 0.909583,-4.122054 -0.151595,-4.630958 0.25266,-4.63096 1.31383,-5.34341 1.515968,-3.816727 2.930862,-3.002484 2.07182,-1.323135 7.276629,-2.391806 4.901615,-2.188254 4.345767,-2.544483 1.970746,-1.933805 0.606393,-2.849823 v -2.137398 l 0.151655,-3.30782 -0.80851,-1.119578 -0.859053,-2.086478 -0.454788,-1.52668 -0.757977,0.101778 -0.606385,-0.254447 -0.707456,-1.119578 -1.01064,-3.002488 -0.252657,-1.984699 0.303191,-1.170456 0.25266,-0.763352 0.505316,-0.203558 z"
     id="path1" /></svg>
