<svg
   version="1.1"
   id="svg1"
   width="455.29083"
   height="985.59869"
   viewBox="0 0 455.29083 985.59869"
   sodipodi:docname="body-front.svg"
   inkscape:version="1.4.4 (dcaf3e7, 2026-05-05)"
   xmlns:inkscape="http://www.inkscape.org/namespaces/inkscape"
   xmlns:sodipodi="http://sodipodi.sourceforge.net/DTD/sodipodi-0.dtd"
   xmlns="http://www.w3.org/2000/svg"
   xmlns:svg="http://www.w3.org/2000/svg">
  <defs
     id="defs1" />
  <sodipodi:namedview
     id="namedview1"
     pagecolor="#ffffff"
     bordercolor="#000000"
     borderopacity="0.25"
     inkscape:showpageshadow="2"
     inkscape:pageopacity="0.0"
     inkscape:pagecheckerboard="0"
     inkscape:deskcolor="#d1d1d1"
     inkscape:zoom="0.6325"
     inkscape:cx="172.33202"
     inkscape:cy="467.19368"
     inkscape:window-width="892"
     inkscape:window-height="919"
     inkscape:window-x="775"
     inkscape:window-y="29"
     inkscape:window-maximized="0"
     inkscape:current-layer="svg1" />

  <path
style="fill:none;stroke:#8FAAE6;stroke-width:3;stroke-linecap:round;stroke-linejoin:round;opacity:0.9"
     d="m 353.06917,206.43823 6.32411,21.73913 v 33.9921 l 10.67193,69.96047 3.95257,11.0672 9.48617,20.94861 9.48616,25.6917 5.13834,31.2253 6.71938,33.20158 8.69565,24.90119 11.85771,7.11462 8.3004,7.90514 18.57707,28.4585 2.37154,2.76679 -2.37154,3.16206 -5.92885,0.39526 -5.13834,-2.37154 -5.92886,-7.11463 -3.95256,-5.5336 1.97628,14.22925 7.11462,21.73913 4.74308,18.57708 v 2.7668 l -2.37153,3.16205 h -3.16206 l -2.7668,-2.7668 -12.64822,-33.99209 7.50988,35.17786 2.37154,6.71937 -2.37154,5.13834 h -4.34782 l -2.7668,-4.34782 -1.58103,-4.34783 -11.46245,-35.57312 7.50988,35.57312 0.39526,4.74308 -2.37154,1.18577 -4.34783,-1.58102 -3.55731,-3.16206 -0.79052,-4.34783 -9.88142,-33.59683 5.92885,30.03952 -1.58102,1.97629 -3.16206,1.18577 -3.16205,-1.58103 -1.58103,-1.97628 -7.50988,-34.38736 -5.13834,-20.1581 -1.18577,-8.69565 v -16.99605 l -11.85771,-32.41107 -18.97233,-39.52569 -13.43874,-34.38735 -3.16205,-13.04348 -2.7668,-22.13439 -9.88142,-26.87747 -7.11463,-40.71146 -8.30039,37.94467 -3.55732,27.66798 5.5336,39.52569 1.97628,11.46245 7.11463,20.55336 7.50988,43.08301 3.55731,41.10672 -1.97628,47.03557 -6.32411,38.73518 -9.48617,54.54545 v 15.41502 l 0.79052,22.13439 1.58102,19.76284 4.74309,28.85376 -0.39526,35.17786 -9.48617,57.31226 -7.11462,37.94466 -3.16206,30.03953 v 6.71936 l 2.37154,8.3004 1.97629,7.90514 -1.58103,10.27668 27.27273,44.66407 1.18577,8.3004 -2.7668,3.5573 -3.55731,-0.7905 -2.37154,1.581 -1.58103,1.9763 h -2.37154 l -1.58103,-0.7905 -2.7668,3.162 h -2.37154 l -4.74308,-1.9762 -1.97629,2.3715 -7.50988,1.581 -0.39526,-1.581 -2.37154,-2.7668 -5.92885,4.3478 -6.32411,0.3953 -5.92885,-1.581 -3.16206,-1.9763 -0.39526,-5.9289 -4.34782,-7.5099 -1.18577,-7.11459 1.18577,-9.4862 -4.34783,-9.0909 -0.79051,-11.0672 2.7668,-11.85771 -1.97629,-7.11462 -1.18577,-4.34783 2.7668,-15.01976 2.37154,-9.88143 -4.74308,-56.12648 -7.90514,-64.82213 0.39526,-15.41502 0.39524,-37.15415 -0.39524,-18.18182 -5.5336,-23.32016 -2.7668,-25.6917 v -7.50988 l -11.46245,-92.09486 -4.74308,-40.31621 -5.92886,0.39526 -2.7668,35.96838 -3.95256,32.80632 -8.3004,60.47431 -1.97628,36.7589 -4.74309,20.55336 -3.95257,12.64822 1.58103,49.40711 0.79051,14.22925 -8.69565,57.31225 -4.34782,44.26878 0.79051,25.29644 2.7668,13.04348 0.79051,7.50988 -2.37154,8.69565 0.79052,9.09087 0.39525,9.4862 0.39526,5.1384 -2.37154,3.9525 -1.58103,3.1621 0.79051,11.0672 v 6.32409 l -1.97628,5.5336 -3.16206,1.1858 -2.37154,6.3241 -7.11462,1.9763 -6.32411,-0.3953 -4.74309,-3.5573 -2.37154,1.9763 -6.32411,0.7905 -2.7668,-0.7905 -1.97628,-1.581 -5.13834,0.3952 h -1.58103 l -2.37154,-1.9763 h -3.16206 l -3.55731,-0.7905 -0.39525,-2.7668 -5.13834,0.7906 -1.97629,-3.9526 v -5.1384 l 1.18577,-4.74309 28.06324,-43.47825 -2.37154,-5.5336 -0.39526,-7.90514 3.16206,-14.22925 -0.79051,-24.50593 -6.32412,-37.15415 -11.46245,-58.49802 -1.97628,-23.71541 0.79051,-8.69566 5.92886,-53.75494 1.18577,-14.22925 -0.39526,-14.6245 1.18577,-13.43874 -7.90514,-47.43083 -7.90513,-59.28853 -1.97629,-47.03558 5.5336,-51.3834 13.83399,-44.66403 1.58102,-15.81028 5.5336,-27.66798 -1.97628,-28.85375 -6.71937,-38.33993 -5.92886,25.29645 -9.09091,32.41106 -6.3241,16.20554 -0.79052,14.22925 -5.92885,24.11067 -12.25296,30.03952 -18.181825,37.54941 -11.46245,29.24901 1.58103,10.27668 -1.97629,14.22925 -4.34783,17.78656 -4.347825,18.57708 -3.16206,12.25296 -1.18577,6.71937 -3.55731,0.79051 -1.97628,-0.79051 -2.37155,-4.34783 3.55732,-26.08695 -11.85771,37.54941 -3.55731,3.55731 -2.7668,-2.37154 -1.18577,-2.37155 1.97628,-11.8577 1.18577,-10.27668 4.34783,-15.01977 -9.09091,30.83004 -2.37154,7.50989 -1.58103,3.55731 -3.55731,1.97628 -3.55731,-1.97628 -0.79052,-2.7668 1.58103,-9.09091 7.11462,-34.78261 -5.53359,17.39131 -3.16206,10.27668 -4.34782,9.48616 -2.37155,1.97629 -4.34782,-1.18577 v -4.74309 l -0.79052,-3.95257 7.50989,-24.11067 5.13834,-17.3913 1.18577,-10.27668 -9.09091,11.46245 -6.32411,3.55731 -5.13834,0.39526 L 0.5,527.38685 v -2.7668 l 7.11462,-9.48617 8.3004,-13.83399 11.06719,-13.04348 15.01976,-10.67193 9.09091,-27.66799 8.69565,-56.12648 9.486175,-27.66798 13.43873,-26.48222 2.37155,-9.88142 11.46245,-68.37945 -0.39526,-29.24901 5.138345,-25.29644 10.67194,-18.97233 12.64822,-10.67194 16.20553,-5.92885 26.08696,-8.3004 24.90118,-13.04348 7.90514,-15.01976 -1.18577,-22.9249 -3.55731,-8.69565 -4.34783,-9.486166 -2.37154,0.79051 h -1.18577 l -3.16205,-7.50988 -3.95257,-11.06719 -1.58103,-9.09091 3.55731,-3.952566 5.13834,0.79052 c 0.39526,-32.01581 9.09091,-48.616605 9.09091,-48.616605 v 0 L 218.68182,2.0904144 234.4921,0.50938736 251.8834,7.2287544 264.92688,21.85326 l 6.32411,16.996048 -0.79051,26.482206 4.34783,-1.976276 2.76679,3.162046 1.18578,5.5336 -3.16206,12.64822 -3.55731,7.90514 -3.95257,2.37154 -2.7668,-1.18577 -3.16206,10.671936 -4.74308,10.27668 v 25.29644 l 3.55731,5.92885 7.50989,6.71937 13.83399,7.11463 20.1581,7.90513 22.13439,6.32412 15.41502,8.69565 9.09091,13.43873 4.34782,10.67194 -0.39525,-0.39526"
     id="path4" />
</svg>
